<?xml version="1.0" standalone="yes"?>

<svg version="1.1" viewBox="0.0 0.0 960.0 720.0" fill="none" stroke="none" stroke-linecap="square" stroke-miterlimit="10" xmlns="http://www.w3.org/2000/svg" xmlns:xlink="http://www.w3.org/1999/xlink"><clipPath id="p.0"><path d="m0 0l960.0 0l0 720.0l-960.0 0l0 -720.0z" clip-rule="nonzero"></path></clipPath><g clip-path="url(#p.0)"><path fill="#000000" fill-opacity="0.0" d="m0 0l960.0 0l0 720.0l-960.0 0z" fill-rule="nonzero"></path><path fill="#274e13" d="m136.0 88.0l600.0 0l0 168.44095l-600.0 0z" fill-rule="nonzero"></path><path stroke="#000000" stroke-width="2.0" stroke-linejoin="round" stroke-linecap="butt" d="m136.0 88.0l600.0 0l0 168.44095l-600.0 0z" fill-rule="nonzero"></path><path fill="#000000" fill-opacity="0.0" d="m149.9725 128.28418l467.99918 0l0 85.713486l-467.99918 0z" fill-rule="nonzero"></path><path stroke="#b7b7b7" stroke-width="2.0" stroke-linejoin="round" stroke-linecap="butt" d="m149.9725 128.28418l467.99918 0l0 85.713486l-467.99918 0z" fill-rule="nonzero"></path><path fill="#434343" d="m156.95757 145.54268l10.229279 -10.229263l14.466766 0l10.229263 10.229263l0 51.081863l-10.229263 10.229263l-14.466766 0l-10.229279 -10.229263z" fill-rule="nonzero"></path><path stroke="#000000" stroke-width="2.0" stroke-linejoin="round" stroke-linecap="butt" d="m156.95757 145.54268l10.229279 -10.229263l14.466766 0l10.229263 10.229263l0 51.081863l-10.229263 10.229263l-14.466766 0l-10.229279 -10.229263z" fill-rule="nonzero"></path><path fill="#ff0000" d="m163.94263 153.28394l0 0c0 -5.917282 4.690979 -10.714172 10.4776 -10.714172l0 0c2.7788239 0 5.4438477 1.1287994 7.4087677 3.1381073c1.9649353 2.0092926 3.0688171 4.734497 3.0688171 7.576065l0 0c0 5.917282 -4.690979 10.714188 -10.477585 10.714188l0 0c-5.786621 0 -10.4776 -4.7969055 -10.4776 -10.714188z" fill-rule="nonzero"></path><path stroke="#000000" stroke-width="2.0" stroke-linejoin="round" stroke-linecap="butt" d="m163.94263 153.28394l0 0c0 -5.917282 4.690979 -10.714172 10.4776 -10.714172l0 0c2.7788239 0 5.4438477 1.1287994 7.4087677 3.1381073c1.9649353 2.0092926 3.0688171 4.734497 3.0688171 7.576065l0 0c0 5.917282 -4.690979 10.714188 -10.477585 10.714188l0 0c-5.786621 0 -10.4776 -4.7969055 -10.4776 -10.714188z" fill-rule="nonzero"></path><path fill="#ff9900" d="m163.94263 188.9979l0 0c0 -5.917282 4.690979 -10.714188 10.4776 -10.714188l0 0c2.7788239 0 5.4438477 1.1288147 7.4087677 3.1381226c1.9649353 2.0092926 3.0688171 4.734497 3.0688171 7.576065l0 0c0 5.917282 -4.690979 10.714188 -10.477585 10.714188l0 0c-5.786621 0 -10.4776 -4.7969055 -10.4776 -10.714188z" fill-rule="nonzero"></path><path stroke="#000000" stroke-width="2.0" stroke-linejoin="round" stroke-linecap="butt" d="m163.94263 188.9979l0 0c0 -5.917282 4.690979 -10.714188 10.4776 -10.714188l0 0c2.7788239 0 5.4438477 1.1288147 7.4087677 3.1381226c1.9649353 2.0092926 3.0688171 4.734497 3.0688171 7.576065l0 0c0 5.917282 -4.690979 10.714188 -10.477585 10.714188l0 0c-5.786621 0 -10.4776 -4.7969055 -10.4776 -10.714188z" fill-rule="nonzero"></path><path fill="#434343" d="m191.88287 145.65623l10.229279 -10.229263l14.466766 0l10.229279 10.229263l0 51.081863l-10.229279 10.229263l-14.466766 0l-10.229279 -10.229263z" fill-rule="nonzero"></path><path stroke="#000000" stroke-width="2.0" stroke-linejoin="round" stroke-linecap="butt" d="m191.88287 145.65623l10.229279 -10.229263l14.466766 0l10.229279 10.229263l0 51.081863l-10.229279 10.229263l-14.466766 0l-10.229279 -10.229263z" fill-rule="nonzero"></path><path fill="#ff0000" d="m198.86794 153.39749l0 0c0 -5.917282 4.690979 -10.714172 10.4776 -10.714172l0 0c2.7788239 0 5.4438477 1.1287994 7.408783 3.1381073c1.96492 2.0092926 3.0688171 4.734497 3.0688171 7.576065l0 0c0 5.917282 -4.690979 10.714188 -10.4776 10.714188l0 0c-5.786621 0 -10.4776 -4.7969055 -10.4776 -10.714188z" fill-rule="nonzero"></path><path stroke="#000000" stroke-width="2.0" stroke-linejoin="round" stroke-linecap="butt" d="m198.86794 153.39749l0 0c0 -5.917282 4.690979 -10.714172 10.4776 -10.714172l0 0c2.7788239 0 5.4438477 1.1287994 7.408783 3.1381073c1.96492 2.0092926 3.0688171 4.734497 3.0688171 7.576065l0 0c0 5.917282 -4.690979 10.714188 -10.4776 10.714188l0 0c-5.786621 0 -10.4776 -4.7969055 -10.4776 -10.714188z" fill-rule="nonzero"></path><path fill="#00ffff" d="m198.86794 189.11147l0 0c0 -5.917282 4.690979 -10.714188 10.4776 -10.714188l0 0c2.7788239 0 5.4438477 1.1288147 7.408783 3.1381073c1.96492 2.0093079 3.0688171 4.734497 3.0688171 7.5760803l0 0c0 5.917282 -4.690979 10.714188 -10.4776 10.714188l0 0c-5.786621 0 -10.4776 -4.7969055 -10.4776 -10.714188z" fill-rule="nonzero"></path><path stroke="#000000" stroke-width="2.0" stroke-linejoin="round" stroke-linecap="butt" d="m198.86794 189.11147l0 0c0 -5.917282 4.690979 -10.714188 10.4776 -10.714188l0 0c2.7788239 0 5.4438477 1.1288147 7.408783 3.1381073c1.96492 2.0093079 3.0688171 4.734497 3.0688171 7.5760803l0 0c0 5.917282 -4.690979 10.714188 -10.4776 10.714188l0 0c-5.786621 0 -10.4776 -4.7969055 -10.4776 -10.714188z" fill-rule="nonzero"></path><path fill="#434343" d="m226.8082 145.65623l10.229263 -10.229263l14.466766 0l10.229263 10.229263l0 51.081863l-10.229263 10.229263l-14.466766 0l-10.229263 -10.229263z" fill-rule="nonzero"></path><path stroke="#000000" stroke-width="2.0" stroke-linejoin="round" stroke-linecap="butt" d="m226.8082 145.65623l10.229263 -10.229263l14.466766 0l10.229263 10.229263l0 51.081863l-10.229263 10.229263l-14.466766 0l-10.229263 -10.229263z" fill-rule="nonzero"></path><path fill="#000000" d="m233.79326 153.39749l0 0c0 -5.917282 4.690979 -10.714172 10.477585 -10.714172l0 0c2.778839 0 5.4438477 1.1287994 7.408783 3.1381073c1.96492 2.0092926 3.0688171 4.734497 3.0688171 7.576065l0 0c0 5.917282 -4.690979 10.714188 -10.4776 10.714188l0 0c-5.786606 0 -10.477585 -4.7969055 -10.477585 -10.714188z" fill-rule="nonzero"></path><path stroke="#000000" stroke-width="2.0" stroke-linejoin="round" stroke-linecap="butt" d="m233.79326 153.39749l0 0c0 -5.917282 4.690979 -10.714172 10.477585 -10.714172l0 0c2.778839 0 5.4438477 1.1287994 7.408783 3.1381073c1.96492 2.0092926 3.0688171 4.734497 3.0688171 7.576065l0 0c0 5.917282 -4.690979 10.714188 -10.4776 10.714188l0 0c-5.786606 0 -10.477585 -4.7969055 -10.477585 -10.714188z" fill-rule="nonzero"></path><path fill="#00ffff" d="m233.79326 189.11147l0 0c0 -5.917282 4.690979 -10.714188 10.477585 -10.714188l0 0c2.778839 0 5.4438477 1.1288147 7.408783 3.1381073c1.96492 2.0093079 3.0688171 4.734497 3.0688171 7.5760803l0 0c0 5.917282 -4.690979 10.714188 -10.4776 10.714188l0 0c-5.786606 0 -10.477585 -4.7969055 -10.477585 -10.714188z" fill-rule="nonzero"></path><path stroke="#000000" stroke-width="2.0" stroke-linejoin="round" stroke-linecap="butt" d="m233.79326 189.11147l0 0c0 -5.917282 4.690979 -10.714188 10.477585 -10.714188l0 0c2.778839 0 5.4438477 1.1288147 7.408783 3.1381073c1.96492 2.0093079 3.0688171 4.734497 3.0688171 7.5760803l0 0c0 5.917282 -4.690979 10.714188 -10.4776 10.714188l0 0c-5.786606 0 -10.477585 -4.7969055 -10.477585 -10.714188z" fill-rule="nonzero"></path><path fill="#434343" d="m261.7335 145.76979l10.229279 -10.229263l14.466766 0l10.229279 10.229263l0 51.081863l-10.229279 10.229263l-14.466766 0l-10.229279 -10.229263z" fill-rule="nonzero"></path><path stroke="#000000" stroke-width="2.0" stroke-linejoin="round" stroke-linecap="butt" d="m261.7335 145.76979l10.229279 -10.229263l14.466766 0l10.229279 10.229263l0 51.081863l-10.229279 10.229263l-14.466766 0l-10.229279 -10.229263z" fill-rule="nonzero"></path><path fill="#ffff00" d="m268.71857 153.51105l0 0c0 -5.917282 4.690979 -10.714172 10.4776 -10.714172l0 0c2.7788086 0 5.4438477 1.1287994 7.408783 3.1381073c1.9649048 2.0092926 3.0688171 4.734497 3.0688171 7.576065l0 0c0 5.917282 -4.690979 10.714188 -10.4776 10.714188l0 0c-5.786621 0 -10.4776 -4.7969055 -10.4776 -10.714188z" fill-rule="nonzero"></path><path stroke="#000000" stroke-width="2.0" stroke-linejoin="round" stroke-linecap="butt" d="m268.71857 153.51105l0 0c0 -5.917282 4.690979 -10.714172 10.4776 -10.714172l0 0c2.7788086 0 5.4438477 1.1287994 7.408783 3.1381073c1.9649048 2.0092926 3.0688171 4.734497 3.0688171 7.576065l0 0c0 5.917282 -4.690979 10.714188 -10.4776 10.714188l0 0c-5.786621 0 -10.4776 -4.7969055 -10.4776 -10.714188z" fill-rule="nonzero"></path><path fill="#00ff00" d="m268.71857 189.225l0 0c0 -5.917282 4.690979 -10.714188 10.4776 -10.714188l0 0c2.7788086 0 5.4438477 1.1288147 7.408783 3.1381226c1.9649048 2.0092926 3.0688171 4.734497 3.0688171 7.576065l0 0c0 5.917282 -4.690979 10.714188 -10.4776 10.714188l0 0c-5.786621 0 -10.4776 -4.7969055 -10.4776 -10.714188z" fill-rule="nonzero"></path><path stroke="#000000" stroke-width="2.0" stroke-linejoin="round" stroke-linecap="butt" d="m268.71857 189.225l0 0c0 -5.917282 4.690979 -10.714188 10.4776 -10.714188l0 0c2.7788086 0 5.4438477 1.1288147 7.408783 3.1381226c1.9649048 2.0092926 3.0688171 4.734497 3.0688171 7.576065l0 0c0 5.917282 -4.690979 10.714188 -10.4776 10.714188l0 0c-5.786621 0 -10.4776 -4.7969055 -10.4776 -10.714188z" fill-rule="nonzero"></path><path fill="#434343" d="m296.6588 145.65623l10.229279 -10.229263l14.466766 0l10.229279 10.229263l0 51.081863l-10.229279 10.229263l-14.466766 0l-10.229279 -10.229263z" fill-rule="nonzero"></path><path stroke="#000000" stroke-width="2.0" stroke-linejoin="round" stroke-linecap="butt" d="m296.6588 145.65623l10.229279 -10.229263l14.466766 0l10.229279 10.229263l0 51.081863l-10.229279 10.229263l-14.466766 0l-10.229279 -10.229263z" fill-rule="nonzero"></path><path fill="#ffff00" d="m303.6439 153.39749l0 0c0 -5.917282 4.690979 -10.714172 10.47757 -10.714172l0 0c2.778839 0 5.4438477 1.1287994 7.408783 3.1381073c1.9649353 2.0092926 3.0688171 4.734497 3.0688171 7.576065l0 0c0 5.917282 -4.690979 10.714188 -10.4776 10.714188l0 0c-5.7865906 0 -10.47757 -4.7969055 -10.47757 -10.714188z" fill-rule="nonzero"></path><path stroke="#000000" stroke-width="2.0" stroke-linejoin="round" stroke-linecap="butt" d="m303.6439 153.39749l0 0c0 -5.917282 4.690979 -10.714172 10.47757 -10.714172l0 0c2.778839 0 5.4438477 1.1287994 7.408783 3.1381073c1.9649353 2.0092926 3.0688171 4.734497 3.0688171 7.576065l0 0c0 5.917282 -4.690979 10.714188 -10.4776 10.714188l0 0c-5.7865906 0 -10.47757 -4.7969055 -10.47757 -10.714188z" fill-rule="nonzero"></path><path fill="#000000" d="m303.6439 189.11147l0 0c0 -5.917282 4.690979 -10.714188 10.47757 -10.714188l0 0c2.778839 0 5.4438477 1.1288147 7.408783 3.1381073c1.9649353 2.0093079 3.0688171 4.734497 3.0688171 7.5760803l0 0c0 5.917282 -4.690979 10.714188 -10.4776 10.714188l0 0c-5.7865906 0 -10.47757 -4.7969055 -10.47757 -10.714188z" fill-rule="nonzero"></path><path stroke="#000000" stroke-width="2.0" stroke-linejoin="round" stroke-linecap="butt" d="m303.6439 189.11147l0 0c0 -5.917282 4.690979 -10.714188 10.47757 -10.714188l0 0c2.778839 0 5.4438477 1.1288147 7.408783 3.1381073c1.9649353 2.0093079 3.0688171 4.734497 3.0688171 7.5760803l0 0c0 5.917282 -4.690979 10.714188 -10.4776 10.714188l0 0c-5.7865906 0 -10.47757 -4.7969055 -10.47757 -10.714188z" fill-rule="nonzero"></path><path fill="#434343" d="m331.58414 145.76979l10.229279 -10.229263l14.466736 0l10.229279 10.229263l0 51.081863l-10.229279 10.229263l-14.466736 0l-10.229279 -10.229263z" fill-rule="nonzero"></path><path stroke="#000000" stroke-width="2.0" stroke-linejoin="round" stroke-linecap="butt" d="m331.58414 145.76979l10.229279 -10.229263l14.466736 0l10.229279 10.229263l0 51.081863l-10.229279 10.229263l-14.466736 0l-10.229279 -10.229263z" fill-rule="nonzero"></path><path fill="#00ff00" d="m338.56918 153.51105l0 0c0 -5.917282 4.690979 -10.714172 10.4776 -10.714172l0 0c2.778839 0 5.4438477 1.1287994 7.408783 3.1381073c1.9649353 2.0092926 3.0688171 4.734497 3.0688171 7.576065l0 0c0 5.917282 -4.690979 10.714188 -10.4776 10.714188l0 0c-5.786621 0 -10.4776 -4.7969055 -10.4776 -10.714188z" fill-rule="nonzero"></path><path stroke="#000000" stroke-width="2.0" stroke-linejoin="round" stroke-linecap="butt" d="m338.56918 153.51105l0 0c0 -5.917282 4.690979 -10.714172 10.4776 -10.714172l0 0c2.778839 0 5.4438477 1.1287994 7.408783 3.1381073c1.9649353 2.0092926 3.0688171 4.734497 3.0688171 7.576065l0 0c0 5.917282 -4.690979 10.714188 -10.4776 10.714188l0 0c-5.786621 0 -10.4776 -4.7969055 -10.4776 -10.714188z" fill-rule="nonzero"></path><path fill="#00ff00" d="m338.56918 189.225l0 0c0 -5.917282 4.690979 -10.714188 10.4776 -10.714188l0 0c2.778839 0 5.4438477 1.1288147 7.408783 3.1381226c1.9649353 2.0092926 3.0688171 4.734497 3.0688171 7.576065l0 0c0 5.917282 -4.690979 10.714188 -10.4776 10.714188l0 0c-5.786621 0 -10.4776 -4.7969055 -10.4776 -10.714188z" fill-rule="nonzero"></path><path stroke="#000000" stroke-width="2.0" stroke-linejoin="round" stroke-linecap="butt" d="m338.56918 189.225l0 0c0 -5.917282 4.690979 -10.714188 10.4776 -10.714188l0 0c2.778839 0 5.4438477 1.1288147 7.408783 3.1381226c1.9649353 2.0092926 3.0688171 4.734497 3.0688171 7.576065l0 0c0 5.917282 -4.690979 10.714188 -10.4776 10.714188l0 0c-5.786621 0 -10.4776 -4.7969055 -10.4776 -10.714188z" fill-rule="nonzero"></path><path fill="#434343" d="m366.50943 145.76979l10.229279 -10.229263l14.466766 0l10.229279 10.229263l0 51.081863l-10.229279 10.229263l-14.466766 0l-10.229279 -10.229263z" fill-rule="nonzero"></path><path stroke="#000000" stroke-width="2.0" stroke-linejoin="round" stroke-linecap="butt" d="m366.50943 145.76979l10.229279 -10.229263l14.466766 0l10.229279 10.229263l0 51.081863l-10.229279 10.229263l-14.466766 0l-10.229279 -10.229263z" fill-rule="nonzero"></path><path fill="#000000" d="m373.4945 153.51105l0 0c0 -5.917282 4.690979 -10.714172 10.4776 -10.714172l0 0c2.7788086 0 5.4438477 1.1287994 7.4087524 3.1381073c1.9649353 2.0092926 3.0688171 4.734497 3.0688171 7.576065l0 0c0 5.917282 -4.690979 10.714188 -10.47757 10.714188l0 0c-5.786621 0 -10.4776 -4.7969055 -10.4776 -10.714188z" fill-rule="nonzero"></path><path stroke="#000000" stroke-width="2.0" stroke-linejoin="round" stroke-linecap="butt" d="m373.4945 153.51105l0 0c0 -5.917282 4.690979 -10.714172 10.4776 -10.714172l0 0c2.7788086 0 5.4438477 1.1287994 7.4087524 3.1381073c1.9649353 2.0092926 3.0688171 4.734497 3.0688171 7.576065l0 0c0 5.917282 -4.690979 10.714188 -10.47757 10.714188l0 0c-5.786621 0 -10.4776 -4.7969055 -10.4776 -10.714188z" fill-rule="nonzero"></path><path fill="#00ff00" d="m373.4945 189.225l0 0c0 -5.917282 4.690979 -10.714188 10.4776 -10.714188l0 0c2.7788086 0 5.4438477 1.1288147 7.4087524 3.1381226c1.9649353 2.0092926 3.0688171 4.734497 3.0688171 7.576065l0 0c0 5.917282 -4.690979 10.714188 -10.47757 10.714188l0 0c-5.786621 0 -10.4776 -4.7969055 -10.4776 -10.714188z" fill-rule="nonzero"></path><path stroke="#000000" stroke-width="2.0" stroke-linejoin="round" stroke-linecap="butt" d="m373.4945 189.225l0 0c0 -5.917282 4.690979 -10.714188 10.4776 -10.714188l0 0c2.7788086 0 5.4438477 1.1288147 7.4087524 3.1381226c1.9649353 2.0092926 3.0688171 4.734497 3.0688171 7.576065l0 0c0 5.917282 -4.690979 10.714188 -10.47757 10.714188l0 0c-5.786621 0 -10.4776 -4.7969055 -10.4776 -10.714188z" fill-rule="nonzero"></path><path fill="#434343" d="m401.43475 145.88335l10.229279 -10.229263l14.466766 0l10.229279 10.229263l0 51.081863l-10.229279 10.229263l-14.466766 0l-10.229279 -10.229263z" fill-rule="nonzero"></path><path stroke="#000000" stroke-width="2.0" stroke-linejoin="round" stroke-linecap="butt" d="m401.43475 145.88335l10.229279 -10.229263l14.466766 0l10.229279 10.229263l0 51.081863l-10.229279 10.229263l-14.466766 0l-10.229279 -10.229263z" fill-rule="nonzero"></path><path fill="#00ff00" d="m408.4198 153.62462l0 0c0 -5.917282 4.690979 -10.714188 10.4776 -10.714188l0 0c2.778839 0 5.4438477 1.1288147 7.408783 3.1381073c1.9649353 2.0093079 3.0688171 4.734497 3.0688171 7.5760803l0 0c0 5.917282 -4.690979 10.714188 -10.4776 10.714188l0 0c-5.786621 0 -10.4776 -4.7969055 -10.4776 -10.714188z" fill-rule="nonzero"></path><path stroke="#000000" stroke-width="2.0" stroke-linejoin="round" stroke-linecap="butt" d="m408.4198 153.62462l0 0c0 -5.917282 4.690979 -10.714188 10.4776 -10.714188l0 0c2.778839 0 5.4438477 1.1288147 7.408783 3.1381073c1.9649353 2.0093079 3.0688171 4.734497 3.0688171 7.5760803l0 0c0 5.917282 -4.690979 10.714188 -10.4776 10.714188l0 0c-5.786621 0 -10.4776 -4.7969055 -10.4776 -10.714188z" fill-rule="nonzero"></path><path fill="#00ff00" d="m408.4198 189.33858l0 0c0 -5.917282 4.690979 -10.714188 10.4776 -10.714188l0 0c2.778839 0 5.4438477 1.1288147 7.408783 3.1381073c1.9649353 2.0093079 3.0688171 4.734497 3.0688171 7.5760803l0 0c0 5.917282 -4.690979 10.714188 -10.4776 10.714188l0 0c-5.786621 0 -10.4776 -4.7969055 -10.4776 -10.714188z" fill-rule="nonzero"></path><path stroke="#000000" stroke-width="2.0" stroke-linejoin="round" stroke-linecap="butt" d="m408.4198 189.33858l0 0c0 -5.917282 4.690979 -10.714188 10.4776 -10.714188l0 0c2.778839 0 5.4438477 1.1288147 7.408783 3.1381073c1.9649353 2.0093079 3.0688171 4.734497 3.0688171 7.5760803l0 0c0 5.917282 -4.690979 10.714188 -10.4776 10.714188l0 0c-5.786621 0 -10.4776 -4.7969055 -10.4776 -10.714188z" fill-rule="nonzero"></path><path fill="#434343" d="m436.36008 145.20308l10.229248 -10.229279l14.466766 0l10.229279 10.229279l0 51.08185l-10.229279 10.229279l-14.466766 0l-10.229248 -10.229279z" fill-rule="nonzero"></path><path stroke="#000000" stroke-width="2.0" stroke-linejoin="round" stroke-linecap="butt" d="m436.36008 145.20308l10.229248 -10.229279l14.466766 0l10.229279 10.229279l0 51.08185l-10.229279 10.229279l-14.466766 0l-10.229248 -10.229279z" fill-rule="nonzero"></path><path fill="#00ff00" d="m443.34512 152.94435l0 0c0 -5.917282 4.690979 -10.714188 10.4776 -10.714188l0 0c2.778839 0 5.4438477 1.1288147 7.408783 3.1381073c1.9649048 2.0093079 3.0688171 4.734497 3.0688171 7.5760803l0 0c0 5.917282 -4.690979 10.714188 -10.4776 10.714188l0 0c-5.786621 0 -10.4776 -4.7969055 -10.4776 -10.714188z" fill-rule="nonzero"></path><path stroke="#000000" stroke-width="2.0" stroke-linejoin="round" stroke-linecap="butt" d="m443.34512 152.94435l0 0c0 -5.917282 4.690979 -10.714188 10.4776 -10.714188l0 0c2.778839 0 5.4438477 1.1288147 7.408783 3.1381073c1.9649048 2.0093079 3.0688171 4.734497 3.0688171 7.5760803l0 0c0 5.917282 -4.690979 10.714188 -10.4776 10.714188l0 0c-5.786621 0 -10.4776 -4.7969055 -10.4776 -10.714188z" fill-rule="nonzero"></path><path fill="#ff9900" d="m443.34512 188.6583l0 0c0 -5.917282 4.690979 -10.714172 10.4776 -10.714172l0 0c2.778839 0 5.4438477 1.1287994 7.408783 3.1381073c1.9649048 2.0092926 3.0688171 4.734497 3.0688171 7.576065l0 0c0 5.917282 -4.690979 10.714188 -10.4776 10.714188l0 0c-5.786621 0 -10.4776 -4.7969055 -10.4776 -10.714188z" fill-rule="nonzero"></path><path stroke="#000000" stroke-width="2.0" stroke-linejoin="round" stroke-linecap="butt" d="m443.34512 188.6583l0 0c0 -5.917282 4.690979 -10.714172 10.4776 -10.714172l0 0c2.778839 0 5.4438477 1.1287994 7.408783 3.1381073c1.9649048 2.0092926 3.0688171 4.734497 3.0688171 7.576065l0 0c0 5.917282 -4.690979 10.714188 -10.4776 10.714188l0 0c-5.786621 0 -10.4776 -4.7969055 -10.4776 -10.714188z" fill-rule="nonzero"></path><path fill="#434343" d="m471.28537 145.31665l10.229279 -10.229279l14.466766 0l10.229279 10.229279l0 51.08185l-10.229279 10.229263l-14.466766 0l-10.229279 -10.229263z" fill-rule="nonzero"></path><path stroke="#000000" stroke-width="2.0" stroke-linejoin="round" stroke-linecap="butt" d="m471.28537 145.31665l10.229279 -10.229279l14.466766 0l10.229279 10.229279l0 51.08185l-10.229279 10.229263l-14.466766 0l-10.229279 -10.229263z" fill-rule="nonzero"></path><path fill="#000000" d="m478.27045 153.0579l0 0c0 -5.917282 4.690979 -10.714188 10.47757 -10.714188l0 0c2.778839 0 5.4438477 1.1288147 7.408783 3.1381073c1.9649353 2.0093079 3.0688171 4.734497 3.0688171 7.5760803l0 0c0 5.917282 -4.690979 10.714188 -10.4776 10.714188l0 0c-5.7865906 0 -10.47757 -4.7969055 -10.47757 -10.714188z" fill-rule="nonzero"></path><path stroke="#000000" stroke-width="2.0" stroke-linejoin="round" stroke-linecap="butt" d="m478.27045 153.0579l0 0c0 -5.917282 4.690979 -10.714188 10.47757 -10.714188l0 0c2.778839 0 5.4438477 1.1288147 7.408783 3.1381073c1.9649353 2.0093079 3.0688171 4.734497 3.0688171 7.5760803l0 0c0 5.917282 -4.690979 10.714188 -10.4776 10.714188l0 0c-5.7865906 0 -10.47757 -4.7969055 -10.47757 -10.714188z" fill-rule="nonzero"></path><path fill="#ff00ff" d="m478.27045 188.77185l0 0c0 -5.917282 4.690979 -10.714188 10.47757 -10.714188l0 0c2.778839 0 5.4438477 1.1288147 7.408783 3.1381073c1.9649353 2.0093079 3.0688171 4.734497 3.0688171 7.5760803l0 0c0 5.917282 -4.690979 10.714188 -10.4776 10.714188l0 0c-5.7865906 0 -10.47757 -4.7969055 -10.47757 -10.714188z" fill-rule="nonzero"></path><path stroke="#000000" stroke-width="2.0" stroke-linejoin="round" stroke-linecap="butt" d="m478.27045 188.77185l0 0c0 -5.917282 4.690979 -10.714188 10.47757 -10.714188l0 0c2.778839 0 5.4438477 1.1288147 7.408783 3.1381073c1.9649353 2.0093079 3.0688171 4.734497 3.0688171 7.5760803l0 0c0 5.917282 -4.690979 10.714188 -10.4776 10.714188l0 0c-5.7865906 0 -10.47757 -4.7969055 -10.47757 -10.714188z" fill-rule="nonzero"></path><path fill="#434343" d="m506.2107 145.31665l10.229248 -10.229279l14.466797 0l10.229248 10.229279l0 51.08185l-10.229248 10.229263l-14.466797 0l-10.229248 -10.229263z" fill-rule="nonzero"></path><path stroke="#000000" stroke-width="2.0" stroke-linejoin="round" stroke-linecap="butt" d="m506.2107 145.31665l10.229248 -10.229279l14.466797 0l10.229248 10.229279l0 51.08185l-10.229248 10.229263l-14.466797 0l-10.229248 -10.229263z" fill-rule="nonzero"></path><path fill="#00ff00" d="m513.19574 153.0579l0 0c0 -5.917282 4.690979 -10.714188 10.4776 -10.714188l0 0c2.7788086 0 5.4438477 1.1288147 7.4087524 3.1381073c1.9649658 2.0093079 3.0688477 4.734497 3.0688477 7.5760803l0 0c0 5.917282 -4.690979 10.714188 -10.4776 10.714188l0 0c-5.786621 0 -10.4776 -4.7969055 -10.4776 -10.714188z" fill-rule="nonzero"></path><path stroke="#000000" stroke-width="2.0" stroke-linejoin="round" stroke-linecap="butt" d="m513.19574 153.0579l0 0c0 -5.917282 4.690979 -10.714188 10.4776 -10.714188l0 0c2.7788086 0 5.4438477 1.1288147 7.4087524 3.1381073c1.9649658 2.0093079 3.0688477 4.734497 3.0688477 7.5760803l0 0c0 5.917282 -4.690979 10.714188 -10.4776 10.714188l0 0c-5.786621 0 -10.4776 -4.7969055 -10.4776 -10.714188z" fill-rule="nonzero"></path><path fill="#ff00ff" d="m513.19574 188.77185l0 0c0 -5.917282 4.690979 -10.714188 10.4776 -10.714188l0 0c2.7788086 0 5.4438477 1.1288147 7.4087524 3.1381073c1.9649658 2.0093079 3.0688477 4.734497 3.0688477 7.5760803l0 0c0 5.917282 -4.690979 10.714188 -10.4776 10.714188l0 0c-5.786621 0 -10.4776 -4.7969055 -10.4776 -10.714188z" fill-rule="nonzero"></path><path stroke="#000000" stroke-width="2.0" stroke-linejoin="round" stroke-linecap="butt" d="m513.19574 188.77185l0 0c0 -5.917282 4.690979 -10.714188 10.4776 -10.714188l0 0c2.7788086 0 5.4438477 1.1288147 7.4087524 3.1381073c1.9649658 2.0093079 3.0688477 4.734497 3.0688477 7.5760803l0 0c0 5.917282 -4.690979 10.714188 -10.4776 10.714188l0 0c-5.786621 0 -10.4776 -4.7969055 -10.4776 -10.714188z" fill-rule="nonzero"></path><path fill="#434343" d="m541.136 145.4302l10.229309 -10.229279l14.466736 0l10.229309 10.229279l0 51.08185l-10.229309 10.229263l-14.466736 0l-10.229309 -10.229263z" fill-rule="nonzero"></path><path stroke="#000000" stroke-width="2.0" stroke-linejoin="round" stroke-linecap="butt" d="m541.136 145.4302l10.229309 -10.229279l14.466736 0l10.229309 10.229279l0 51.08185l-10.229309 10.229263l-14.466736 0l-10.229309 -10.229263z" fill-rule="nonzero"></path><path fill="#ff00ff" d="m548.12103 153.17146l0 0c0 -5.917282 4.690979 -10.714188 10.4776 -10.714188l0 0c2.7788696 0 5.4438477 1.1288147 7.4088135 3.1381073c1.9649048 2.0093079 3.0687866 4.734497 3.0687866 7.5760803l0 0c0 5.917282 -4.690979 10.714188 -10.4776 10.714188l0 0c-5.786621 0 -10.4776 -4.7969055 -10.4776 -10.714188z" fill-rule="nonzero"></path><path stroke="#000000" stroke-width="2.0" stroke-linejoin="round" stroke-linecap="butt" d="m548.12103 153.17146l0 0c0 -5.917282 4.690979 -10.714188 10.4776 -10.714188l0 0c2.7788696 0 5.4438477 1.1288147 7.4088135 3.1381073c1.9649048 2.0093079 3.0687866 4.734497 3.0687866 7.5760803l0 0c0 5.917282 -4.690979 10.714188 -10.4776 10.714188l0 0c-5.786621 0 -10.4776 -4.7969055 -10.4776 -10.714188z" fill-rule="nonzero"></path><path fill="#ff00ff" d="m548.12103 188.8854l0 0c0 -5.917282 4.690979 -10.714172 10.4776 -10.714172l0 0c2.7788696 0 5.4438477 1.1287994 7.4088135 3.1381073c1.9649048 2.0092926 3.0687866 4.734497 3.0687866 7.576065l0 0c0 5.917282 -4.690979 10.714188 -10.4776 10.714188l0 0c-5.786621 0 -10.4776 -4.7969055 -10.4776 -10.714188z" fill-rule="nonzero"></path><path stroke="#000000" stroke-width="2.0" stroke-linejoin="round" stroke-linecap="butt" d="m548.12103 188.8854l0 0c0 -5.917282 4.690979 -10.714172 10.4776 -10.714172l0 0c2.7788696 0 5.4438477 1.1287994 7.4088135 3.1381073c1.9649048 2.0092926 3.0687866 4.734497 3.0687866 7.576065l0 0c0 5.917282 -4.690979 10.714188 -10.4776 10.714188l0 0c-5.786621 0 -10.4776 -4.7969055 -10.4776 -10.714188z" fill-rule="nonzero"></path><path fill="#434343" d="m576.0613 145.31665l10.229309 -10.229279l14.466736 0l10.229309 10.229279l0 51.08185l-10.229309 10.229263l-14.466736 0l-10.229309 -10.229263z" fill-rule="nonzero"></path><path stroke="#000000" stroke-width="2.0" stroke-linejoin="round" stroke-linecap="butt" d="m576.0613 145.31665l10.229309 -10.229279l14.466736 0l10.229309 10.229279l0 51.08185l-10.229309 10.229263l-14.466736 0l-10.229309 -10.229263z" fill-rule="nonzero"></path><path fill="#ff00ff" d="m583.0464 153.0579l0 0c0 -5.917282 4.690979 -10.714188 10.4776 -10.714188l0 0c2.7788086 0 5.4438477 1.1288147 7.4087524 3.1381073c1.9649048 2.0093079 3.0688477 4.734497 3.0688477 7.5760803l0 0c0 5.917282 -4.690979 10.714188 -10.4776 10.714188l0 0c-5.786621 0 -10.4776 -4.7969055 -10.4776 -10.714188z" fill-rule="nonzero"></path><path stroke="#000000" stroke-width="2.0" stroke-linejoin="round" stroke-linecap="butt" d="m583.0464 153.0579l0 0c0 -5.917282 4.690979 -10.714188 10.4776 -10.714188l0 0c2.7788086 0 5.4438477 1.1288147 7.4087524 3.1381073c1.9649048 2.0093079 3.0688477 4.734497 3.0688477 7.5760803l0 0c0 5.917282 -4.690979 10.714188 -10.4776 10.714188l0 0c-5.786621 0 -10.4776 -4.7969055 -10.4776 -10.714188z" fill-rule="nonzero"></path><path fill="#000000" d="m583.0464 188.77185l0 0c0 -5.917282 4.690979 -10.714188 10.4776 -10.714188l0 0c2.7788086 0 5.4438477 1.1288147 7.4087524 3.1381073c1.9649048 2.0093079 3.0688477 4.734497 3.0688477 7.5760803l0 0c0 5.917282 -4.690979 10.714188 -10.4776 10.714188l0 0c-5.786621 0 -10.4776 -4.7969055 -10.4776 -10.714188z" fill-rule="nonzero"></path><path stroke="#000000" stroke-width="2.0" stroke-linejoin="round" stroke-linecap="butt" d="m583.0464 188.77185l0 0c0 -5.917282 4.690979 -10.714188 10.4776 -10.714188l0 0c2.7788086 0 5.4438477 1.1288147 7.4087524 3.1381073c1.9649048 2.0093079 3.0688477 4.734497 3.0688477 7.5760803l0 0c0 5.917282 -4.690979 10.714188 -10.4776 10.714188l0 0c-5.786621 0 -10.4776 -4.7969055 -10.4776 -10.714188z" fill-rule="nonzero"></path><path fill="#000000" fill-opacity="0.0" d="m163.94263 213.99767l20.955185 0l0 14.2855835l-20.955185 0z" fill-rule="nonzero"></path><path stroke="#b7b7b7" stroke-width="2.0" stroke-linejoin="round" stroke-linecap="butt" d="m163.94263 213.99767l20.955185 0l0 14.2855835l-20.955185 0z" fill-rule="nonzero"></path><path fill="#d0e0e3" d="m648.01654 63.996296l54.48352 0l0 74.433945l-54.48352 0z" fill-rule="nonzero"></path><path stroke="#000000" stroke-width="2.0" stroke-linejoin="round" stroke-linecap="butt" d="m648.01654 63.996296l54.48352 0l0 74.433945l-54.48352 0z" fill-rule="nonzero"></path><path fill="#ffff00" d="m648.01654 212.86087l14.860352 0l4.953491 -11.026154l14.860352 0l4.953491 11.026154l14.860352 0l0 -33.078445l-54.488037 0z" fill-rule="nonzero"></path><path stroke="#000000" stroke-width="2.0" stroke-linejoin="round" stroke-linecap="butt" d="m648.01654 212.86087l14.860352 0l4.953491 -11.026154l14.860352 0l4.953491 11.026154l14.860352 0l0 -33.078445l-54.488037 0z" fill-rule="nonzero"></path><path fill="#ffff00" d="m629.8554 130.1598l27.2417 0l0 90.97481l-27.2417 0z" fill-rule="nonzero"></path><path stroke="#000000" stroke-width="2.0" stroke-linejoin="round" stroke-linecap="butt" d="m629.8554 130.1598l27.2417 0l0 90.97481l-27.2417 0z" fill-rule="nonzero"></path><path fill="#ffff00" d="m693.41943 130.1598l27.24176 0l0 90.97481l-27.24176 0z" fill-rule="nonzero"></path><path stroke="#000000" stroke-width="2.0" stroke-linejoin="round" stroke-linecap="butt" d="m693.41943 130.1598l27.24176 0l0 90.97481l-27.24176 0z" fill-rule="nonzero"></path><path fill="#ffff00" d="m657.0971 138.43024l36.322327 0l0 41.35219l-36.322327 0z" fill-rule="nonzero"></path><path stroke="#000000" stroke-width="2.0" stroke-linejoin="round" stroke-linecap="butt" d="m657.0971 138.43024l36.322327 0l0 41.35219l-36.322327 0z" fill-rule="nonzero"></path><path fill="#000000" fill-opacity="0.0" d="m156.95757 256.8544l0 -42.856735l34.92531 0l0 42.856735z" fill-rule="nonzero"></path><path fill="#ffffff" d="m180.58429 233.53577l0 1.671875l-10.640625 0q0.578125 0.59375 1.15625 1.578125q0.5625 0.984375 0.859375 1.765625l-1.625 0q-0.65625 -1.40625 -1.59375 -2.453125q-0.9375 -1.046875 -1.8125 -1.484375l0 -1.078125l13.65625 0z" fill-rule="nonzero"></path><path fill="#000000" fill-opacity="0.0" d="m191.88287 256.8544l0 -42.856735l34.925323 0l0 42.856735z" fill-rule="nonzero"></path><path fill="#ffffff" d="m211.91585 239.81702l-0.21875 -1.671875q1.421875 -0.28125 2.046875 -0.96875q0.625 -0.703125 0.625 -1.6875q0 -1.1875 -0.8125 -2.0q-0.828125 -0.8125 -2.03125 -0.8125q-1.140625 0 -1.890625 0.765625q-0.75 0.75 -0.75 1.90625q0 0.46875 0.1875 1.171875l-1.46875 -0.1875q0.015625 -0.15625 0.015625 -0.265625q0 -1.0625 -0.546875 -1.90625q-0.5625 -0.859375 -1.71875 -0.859375q-0.921875 0 -1.515625 0.625q-0.609375 0.609375 -0.609375 1.59375q0 0.96875 0.609375 1.625q0.609375 0.640625 1.84375 0.828125l-0.296875 1.671875q-1.6875 -0.296875 -2.609375 -1.375q-0.921875 -1.09375 -0.921875 -2.71875q0 -1.109375 0.484375 -2.046875q0.46875 -0.9375 1.296875 -1.421875q0.828125 -0.5 1.75 -0.5q0.890625 0 1.609375 0.46875q0.71875 0.46875 1.15625 1.40625q0.265625 -1.21875 1.15625 -1.875q0.875 -0.671875 2.1875 -0.671875q1.78125 0 3.015625 1.296875q1.234375 1.296875 1.234375 3.28125q0 1.796875 -1.0625 2.984375q-1.0625 1.171875 -2.765625 1.34375z" fill-rule="nonzero"></path><path fill="#000000" fill-opacity="0.0" d="m156.95757 128.28418l0 -42.85675l34.92531 0l0 42.85675z" fill-rule="nonzero"></path><path fill="#ffffff" d="m178.97491 102.481155l1.609375 0l0 8.984375q-0.609375 0.015625 -1.15625 -0.1875q-0.921875 -0.34375 -1.8125 -1.09375q-0.890625 -0.765625 -2.0625 -2.1875q-1.8125 -2.21875 -2.875 -3.0q-1.0625 -0.78125 -2.015625 -0.78125q-0.984375 0 -1.671875 0.71875q-0.6875 0.703125 -0.6875 1.84375q0 1.203125 0.734375 1.9375q0.71875 0.71875 2.0 0.71875l-0.171875 1.71875q-1.921875 -0.171875 -2.921875 -1.328125q-1.015625 -1.15625 -1.015625 -3.09375q0 -1.953125 1.09375 -3.09375q1.078125 -1.140625 2.6875 -1.140625q0.8125 0 1.609375 0.34375q0.78125 0.328125 1.65625 1.109375q0.859375 0.765625 2.390625 2.5625q1.265625 1.5 1.71875 1.9375q0.4375 0.421875 0.890625 0.703125l0 -6.671875z" fill-rule="nonzero"></path><path fill="#000000" fill-opacity="0.0" d="m226.8082 256.8544l0 -42.856735l34.925293 0l0 42.856735z" fill-rule="nonzero"></path><path fill="#ffffff" d="m246.8724 239.83264l-0.15625 -1.765625q1.28125 -0.1875 1.9375 -0.890625q0.640625 -0.71875 0.640625 -1.71875q0 -1.203125 -0.90625 -2.03125q-0.90625 -0.84375 -2.421875 -0.84375q-1.421875 0 -2.25 0.8125q-0.828125 0.796875 -0.828125 2.09375q0 0.796875 0.375 1.453125q0.359375 0.640625 0.953125 1.015625l-0.203125 1.578125l-7.0 -1.328125l0 -6.765625l1.609375 0l0 5.4375l3.640625 0.734375q-0.84375 -1.234375 -0.84375 -2.578125q0 -1.78125 1.234375 -3.0q1.234375 -1.234375 3.171875 -1.234375q1.84375 0 3.1875 1.078125q1.65625 1.3125 1.65625 3.578125q0 1.859375 -1.03125 3.03125q-1.046875 1.171875 -2.765625 1.34375z" fill-rule="nonzero"></path><path fill="#000000" fill-opacity="0.0" d="m261.7335 256.8544l0 -42.856735l34.925323 0l0 42.856735z" fill-rule="nonzero"></path><path fill="#ffffff" d="m273.54773 239.70764l-1.609375 0l0 -8.796875l1.296875 0q1.375 1.296875 3.671875 2.578125q2.296875 1.265625 4.71875 1.96875q1.703125 0.5 3.734375 0.640625l0 1.71875q-1.609375 -0.03125 -3.875 -0.625q-2.28125 -0.609375 -4.390625 -1.734375q-2.109375 -1.140625 -3.546875 -2.40625l0 6.65625z" fill-rule="nonzero"></path><path fill="#000000" fill-opacity="0.0" d="m296.6588 256.8544l0 -42.856735l34.925323 0l0 42.856735z" fill-rule="nonzero"></path><path fill="#ffffff" d="m317.1449 239.56702l-0.15625 -1.59375q1.140625 -0.203125 1.65625 -0.78125q0.5 -0.578125 0.5 -1.484375q0 -0.765625 -0.34375 -1.34375q-0.359375 -0.578125 -0.953125 -0.953125q-0.59375 -0.375 -1.59375 -0.625q-1.0 -0.25 -2.03125 -0.25q-0.109375 0 -0.34375 0.015625q0.796875 0.5 1.296875 1.375q0.5 0.859375 0.5 1.875q0 1.6875 -1.21875 2.859375q-1.234375 1.171875 -3.234375 1.171875q-2.078125 0 -3.328125 -1.21875q-1.265625 -1.234375 -1.265625 -3.0625q0 -1.328125 0.71875 -2.421875q0.703125 -1.109375 2.03125 -1.671875q1.328125 -0.578125 3.828125 -0.578125q2.609375 0 4.15625 0.578125q1.546875 0.5625 2.359375 1.6875q0.796875 1.109375 0.796875 2.609375q0 1.59375 -0.890625 2.609375q-0.890625 1.0 -2.484375 1.203125zm-6.0 -6.828125q-1.4375 0 -2.28125 0.765625q-0.859375 0.765625 -0.859375 1.84375q0 1.109375 0.921875 1.9375q0.90625 0.828125 2.34375 0.828125q1.3125 0 2.125 -0.78125q0.796875 -0.796875 0.796875 -1.9375q0 -1.171875 -0.796875 -1.90625q-0.8125 -0.75 -2.25 -0.75z" fill-rule="nonzero"></path><path fill="#000000" fill-opacity="0.0" d="m331.58414 256.8544l0 -42.856735l34.925293 0l0 42.856735z" fill-rule="nonzero"></path><path fill="#ffffff" d="m355.21085 238.72363l0 1.671875l-10.640625 0q0.578125 0.59375 1.15625 1.578125q0.5625 0.984375 0.859375 1.765625l-1.625 0q-0.65625 -1.40625 -1.59375 -2.453125q-0.9375 -1.046875 -1.8125 -1.484375l0 -1.078125l13.65625 0zm0 -10.375717l0 1.671875l-10.640625 0q0.578125 0.59375 1.15625 1.578125q0.5625 0.984375 0.859375 1.765625l-1.625 0q-0.65625 -1.40625 -1.59375 -2.453125q-0.9375 -1.046875 -1.8125 -1.484375l0 -1.078125l13.65625 0z" fill-rule="nonzero"></path><path fill="#000000" fill-opacity="0.0" d="m366.50943 256.8544l0 -42.856735l34.925323 0l0 42.856735z" fill-rule="nonzero"></path><path fill="#ffffff" d="m390.13617 238.72363l0 1.671875l-10.640625 0q0.578125 0.59375 1.15625 1.578125q0.5625 0.984375 0.859375 1.765625l-1.625 0q-0.65625 -1.40625 -1.59375 -2.453125q-0.9375 -1.046875 -1.8125 -1.484375l0 -1.078125l13.65625 0zm-3.59375 -4.094467l-0.21875 -1.671875q1.421875 -0.28125 2.046875 -0.96875q0.625 -0.703125 0.625 -1.6875q0 -1.1875 -0.8125 -2.0q-0.828125 -0.8125 -2.03125 -0.8125q-1.140625 0 -1.890625 0.765625q-0.75 0.75 -0.75 1.90625q0 0.46875 0.1875 1.171875l-1.46875 -0.1875q0.015625 -0.15625 0.015625 -0.265625q0 -1.0625 -0.546875 -1.90625q-0.5625 -0.859375 -1.71875 -0.859375q-0.921875 0 -1.515625 0.625q-0.609375 0.609375 -0.609375 1.59375q0 0.96875 0.609375 1.625q0.609375 0.640625 1.84375 0.828125l-0.296875 1.671875q-1.6875 -0.296875 -2.609375 -1.375q-0.921875 -1.09375 -0.921875 -2.71875q0 -1.109375 0.484375 -2.046875q0.46875 -0.9375 1.296875 -1.421875q0.828125 -0.5 1.75 -0.5q0.890625 0 1.609375 0.46875q0.71875 0.46875 1.15625 1.40625q0.265625 -1.21875 1.15625 -1.875q0.875 -0.671875 2.1875 -0.671875q1.78125 0 3.015625 1.296875q1.234375 1.296875 1.234375 3.28125q0 1.796875 -1.0625 2.984375q-1.0625 1.171875 -2.765625 1.34375z" fill-rule="nonzero"></path><path fill="#000000" fill-opacity="0.0" d="m401.43475 256.8544l0 -42.856735l34.925323 0l0 42.856735z" fill-rule="nonzero"></path><path fill="#ffffff" d="m425.06146 238.72363l0 1.671875l-10.640625 0q0.578125 0.59375 1.15625 1.578125q0.5625 0.984375 0.859375 1.765625l-1.625 0q-0.65625 -1.40625 -1.59375 -2.453125q-0.9375 -1.046875 -1.8125 -1.484375l0 -1.078125l13.65625 0zm-3.5625 -4.078842l-0.15625 -1.765625q1.28125 -0.1875 1.9375 -0.890625q0.640625 -0.71875 0.640625 -1.71875q0 -1.203125 -0.90625 -2.03125q-0.90625 -0.84375 -2.421875 -0.84375q-1.421875 0 -2.25 0.8125q-0.828125 0.796875 -0.828125 2.09375q0 0.796875 0.375 1.453125q0.359375 0.640625 0.953125 1.015625l-0.203125 1.578125l-7.0 -1.328125l0 -6.765625l1.609375 0l0 5.4375l3.640625 0.734375q-0.84375 -1.234375 -0.84375 -2.578125q0 -1.78125 1.234375 -3.0q1.234375 -1.234375 3.171875 -1.234375q1.84375 0 3.1875 1.078125q1.65625 1.3125 1.65625 3.578125q0 1.859375 -1.03125 3.03125q-1.046875 1.171875 -2.765625 1.34375z" fill-rule="nonzero"></path><path fill="#000000" fill-opacity="0.0" d="m436.36008 256.8544l0 -42.856735l34.925293 0l0 42.856735z" fill-rule="nonzero"></path><path fill="#ffffff" d="m459.9868 238.72363l0 1.671875l-10.640625 0q0.578125 0.59375 1.15625 1.578125q0.5625 0.984375 0.859375 1.765625l-1.625 0q-0.65625 -1.40625 -1.59375 -2.453125q-0.9375 -1.046875 -1.8125 -1.484375l0 -1.078125l13.65625 0zm-11.8125 -4.203842l-1.609375 0l0 -8.796875l1.296875 0q1.375 1.296875 3.671875 2.578125q2.296875 1.265625 4.71875 1.96875q1.703125 0.5 3.734375 0.640625l0 1.71875q-1.609375 -0.03125 -3.875 -0.625q-2.28125 -0.609375 -4.390625 -1.734375q-2.109375 -1.140625 -3.546875 -2.40625l0 6.65625z" fill-rule="nonzero"></path><path fill="#000000" fill-opacity="0.0" d="m471.28537 256.8544l0 -42.856735l34.925323 0l0 42.856735z" fill-rule="nonzero"></path><path fill="#ffffff" d="m494.91208 238.72363l0 1.671875l-10.640625 0q0.578125 0.59375 1.15625 1.578125q0.5625 0.984375 0.859375 1.765625l-1.625 0q-0.65625 -1.40625 -1.59375 -2.453125q-0.9375 -1.046875 -1.8125 -1.484375l0 -1.078125l13.65625 0zm-3.140625 -4.344467l-0.15625 -1.59375q1.140625 -0.203125 1.65625 -0.78125q0.5 -0.578125 0.5 -1.484375q0 -0.765625 -0.34375 -1.34375q-0.359375 -0.578125 -0.953125 -0.953125q-0.59375 -0.375 -1.59375 -0.625q-1.0 -0.25 -2.03125 -0.25q-0.109375 0 -0.34375 0.015625q0.796875 0.5 1.296875 1.375q0.5 0.859375 0.5 1.875q0 1.6875 -1.21875 2.859375q-1.234375 1.171875 -3.234375 1.171875q-2.078125 0 -3.328125 -1.21875q-1.265625 -1.234375 -1.265625 -3.0625q0 -1.328125 0.71875 -2.421875q0.703125 -1.109375 2.03125 -1.671875q1.328125 -0.578125 3.828125 -0.578125q2.609375 0 4.15625 0.578125q1.546875 0.5625 2.359375 1.6875q0.796875 1.109375 0.796875 2.609375q0 1.59375 -0.890625 2.609375q-0.890625 1.0 -2.484375 1.203125zm-6.0 -6.828125q-1.4375 0 -2.28125 0.765625q-0.859375 0.765625 -0.859375 1.84375q0 1.109375 0.921875 1.9375q0.90625 0.828125 2.34375 0.828125q1.3125 0 2.125 -0.78125q0.796875 -0.796875 0.796875 -1.9375q0 -1.171875 -0.796875 -1.90625q-0.8125 -0.75 -2.25 -0.75z" fill-rule="nonzero"></path><path fill="#000000" fill-opacity="0.0" d="m506.2107 256.8544l0 -42.856735l34.925293 0l0 42.856735z" fill-rule="nonzero"></path><path fill="#ffffff" d="m528.228 236.23926l1.609375 0l0 8.984375q-0.609375 0.015625 -1.15625 -0.1875q-0.921875 -0.34375 -1.8125 -1.09375q-0.890625 -0.765625 -2.0625 -2.1875q-1.8125 -2.21875 -2.875 -3.0q-1.0625 -0.78125 -2.015625 -0.78125q-0.984375 0 -1.671875 0.71875q-0.6875 0.703125 -0.6875 1.84375q0 1.203125 0.734375 1.9375q0.71875 0.71875 2.0 0.71875l-0.171875 1.71875q-1.921875 -0.171875 -2.921875 -1.328125q-1.015625 -1.15625 -1.015625 -3.09375q0 -1.953125 1.09375 -3.09375q1.078125 -1.140625 2.6875 -1.140625q0.8125 0 1.609375 0.34375q0.78125 0.328125 1.65625 1.109375q0.859375 0.765625 2.390625 2.5625q1.265625 1.5 1.71875 1.9375q0.4375 0.421875 0.890625 0.703125l0 -6.671875zm1.609375 -7.891342l0 1.671875l-10.640625 0q0.578125 0.59375 1.15625 1.578125q0.5625 0.984375 0.859375 1.765625l-1.625 0q-0.65625 -1.40625 -1.59375 -2.453125q-0.9375 -1.046875 -1.8125 -1.484375l0 -1.078125l13.65625 0z" fill-rule="nonzero"></path><path fill="#000000" fill-opacity="0.0" d="m541.136 256.8544l0 -42.856735l34.925354 0l0 42.856735z" fill-rule="nonzero"></path><path fill="#ffffff" d="m563.1533 236.23926l1.609375 0l0 8.984375q-0.609375 0.015625 -1.15625 -0.1875q-0.921875 -0.34375 -1.8125 -1.09375q-0.890625 -0.765625 -2.0625 -2.1875q-1.8125 -2.21875 -2.875 -3.0q-1.0625 -0.78125 -2.015625 -0.78125q-0.984375 0 -1.671875 0.71875q-0.6875 0.703125 -0.6875 1.84375q0 1.203125 0.734375 1.9375q0.71875 0.71875 2.0 0.71875l-0.171875 1.71875q-1.921875 -0.171875 -2.921875 -1.328125q-1.015625 -1.15625 -1.015625 -3.09375q0 -1.953125 1.09375 -3.09375q1.078125 -1.140625 2.6875 -1.140625q0.8125 0 1.609375 0.34375q0.78125 0.328125 1.65625 1.109375q0.859375 0.765625 2.390625 2.5625q1.265625 1.5 1.71875 1.9375q0.4375 0.421875 0.890625 0.703125l0 -6.671875zm-1.984375 -1.6100922l-0.21875 -1.671875q1.421875 -0.28125 2.046875 -0.96875q0.625 -0.703125 0.625 -1.6875q0 -1.1875 -0.8125 -2.0q-0.828125 -0.8125 -2.03125 -0.8125q-1.140625 0 -1.890625 0.765625q-0.75 0.75 -0.75 1.90625q0 0.46875 0.1875 1.171875l-1.46875 -0.1875q0.015625 -0.15625 0.015625 -0.265625q0 -1.0625 -0.546875 -1.90625q-0.5625 -0.859375 -1.71875 -0.859375q-0.921875 0 -1.515625 0.625q-0.609375 0.609375 -0.609375 1.59375q0 0.96875 0.609375 1.625q0.609375 0.640625 1.84375 0.828125l-0.296875 1.671875q-1.6875 -0.296875 -2.609375 -1.375q-0.921875 -1.09375 -0.921875 -2.71875q0 -1.109375 0.484375 -2.046875q0.46875 -0.9375 1.296875 -1.421875q0.828125 -0.5 1.75 -0.5q0.890625 0 1.609375 0.46875q0.71875 0.46875 1.15625 1.40625q0.265625 -1.21875 1.15625 -1.875q0.875 -0.671875 2.1875 -0.671875q1.78125 0 3.015625 1.296875q1.234375 1.296875 1.234375 3.28125q0 1.796875 -1.0625 2.984375q-1.0625 1.171875 -2.765625 1.34375z" fill-rule="nonzero"></path><path fill="#000000" fill-opacity="0.0" d="m576.0613 256.8544l0 -42.856735l34.925354 0l0 42.856735z" fill-rule="nonzero"></path><path fill="#ffffff" d="m598.0787 236.23926l1.609375 0l0 8.984375q-0.609375 0.015625 -1.15625 -0.1875q-0.921875 -0.34375 -1.8125 -1.09375q-0.890625 -0.765625 -2.0625 -2.1875q-1.8125 -2.21875 -2.875 -3.0q-1.0625 -0.78125 -2.015625 -0.78125q-0.984375 0 -1.671875 0.71875q-0.6875 0.703125 -0.6875 1.84375q0 1.203125 0.734375 1.9375q0.71875 0.71875 2.0 0.71875l-0.171875 1.71875q-1.921875 -0.171875 -2.921875 -1.328125q-1.015625 -1.15625 -1.015625 -3.09375q0 -1.953125 1.09375 -3.09375q1.078125 -1.140625 2.6875 -1.140625q0.8125 0 1.609375 0.34375q0.78125 0.328125 1.65625 1.109375q0.859375 0.765625 2.390625 2.5625q1.265625 1.5 1.71875 1.9375q0.4375 0.421875 0.890625 0.703125l0 -6.671875zm-1.953125 -1.5944672l-0.15625 -1.765625q1.28125 -0.1875 1.9375 -0.890625q0.640625 -0.71875 0.640625 -1.71875q0 -1.203125 -0.90625 -2.03125q-0.90625 -0.84375 -2.421875 -0.84375q-1.421875 0 -2.25 0.8125q-0.828125 0.796875 -0.828125 2.09375q0 0.796875 0.375 1.453125q0.359375 0.640625 0.953125 1.015625l-0.203125 1.578125l-7.0 -1.328125l0 -6.765625l1.609375 0l0 5.4375l3.640625 0.734375q-0.84375 -1.234375 -0.84375 -2.578125q0 -1.78125 1.234375 -3.0q1.234375 -1.234375 3.171875 -1.234375q1.84375 0 3.1875 1.078125q1.65625 1.3125 1.65625 3.578125q0 1.859375 -1.03125 3.03125q-1.046875 1.171875 -2.765625 1.34375z" fill-rule="nonzero"></path><path fill="#000000" fill-opacity="0.0" d="m191.88287 128.28418l0 -42.85675l34.925323 0l0 42.85675z" fill-rule="nonzero"></path><path fill="#ffffff" d="m215.5096 105.90303l-3.25 0l0 5.90625l-1.53125 0l-8.8125 -6.21875l0 -1.359375l8.8125 0l0 -1.84375l1.53125 0l0 1.84375l3.25 0l0 1.671875zm-4.78125 0l-6.140625 0l6.140625 4.25l0 -4.25z" fill-rule="nonzero"></path><path fill="#000000" fill-opacity="0.0" d="m226.8082 128.28418l0 -42.85675l34.925293 0l0 42.85675z" fill-rule="nonzero"></path><path fill="#ffffff" d="m240.16928 102.59053l0.125 1.65625q-0.984375 0.21875 -1.421875 0.640625q-0.71875 0.671875 -0.71875 1.65625q0 0.8125 0.4375 1.40625q0.578125 0.796875 1.6875 1.25q1.09375 0.453125 3.140625 0.46875q-0.921875 -0.609375 -1.359375 -1.46875q-0.453125 -0.875 -0.453125 -1.828125q0 -1.671875 1.234375 -2.84375q1.234375 -1.171875 3.171875 -1.171875q1.28125 0 2.390625 0.546875q1.09375 0.546875 1.6875 1.515625q0.578125 0.96875 0.578125 2.1875q0 2.09375 -1.53125 3.40625q-1.546875 1.3125 -5.0625 1.3125q-3.953125 0 -5.734375 -1.453125q-1.5625 -1.265625 -1.5625 -3.421875q0 -1.609375 0.90625 -2.625q0.890625 -1.03125 2.484375 -1.234375zm5.859375 6.8125q0.859375 0 1.65625 -0.359375q0.78125 -0.375 1.203125 -1.03125q0.40625 -0.65625 0.40625 -1.375q0 -1.0625 -0.84375 -1.8125q-0.859375 -0.765625 -2.328125 -0.765625q-1.40625 0 -2.21875 0.75q-0.8125 0.75 -0.8125 1.890625q0 1.125 0.8125 1.921875q0.8125 0.78125 2.125 0.78125z" fill-rule="nonzero"></path><path fill="#000000" fill-opacity="0.0" d="m261.7335 128.28418l0 -42.85675l34.925323 0l0 42.85675z" fill-rule="nonzero"></path><path fill="#ffffff" d="m277.98523 108.68428q-0.375 1.046875 -1.078125 1.546875q-0.71875 0.5 -1.703125 0.5q-1.484375 0 -2.484375 -1.0625q-1.015625 -1.078125 -1.015625 -2.84375q0 -1.78125 1.03125 -2.859375q1.03125 -1.09375 2.515625 -1.09375q0.953125 0 1.65625 0.5q0.703125 0.484375 1.078125 1.5q0.40625 -1.25 1.3125 -1.90625q0.90625 -0.65625 2.171875 -0.65625q1.75 0 2.9375 1.234375q1.1875 1.234375 1.1875 3.25q0 2.015625 -1.1875 3.25q-1.203125 1.234375 -2.984375 1.234375q-1.328125 0 -2.21875 -0.671875q-0.890625 -0.671875 -1.21875 -1.921875zm-2.828125 0.328125q0.96875 0 1.578125 -0.609375q0.609375 -0.625 0.609375 -1.625q0 -0.953125 -0.609375 -1.5625q-0.609375 -0.625 -1.484375 -0.625q-0.921875 0 -1.546875 0.640625q-0.625 0.625 -0.625 1.578125q0 0.953125 0.609375 1.578125q0.609375 0.625 1.46875 0.625zm6.28125 0.546875q0.71875 0 1.390625 -0.328125q0.65625 -0.34375 1.03125 -1.015625q0.359375 -0.671875 0.359375 -1.4375q0 -1.203125 -0.765625 -1.984375q-0.78125 -0.78125 -1.96875 -0.78125q-1.203125 0 -1.984375 0.8125q-0.796875 0.796875 -0.796875 2.0q0 1.1875 0.78125 1.96875q0.78125 0.765625 1.953125 0.765625z" fill-rule="nonzero"></path><path fill="#000000" fill-opacity="0.0" d="m296.6588 128.28418l0 -42.85675l34.925323 0l0 42.85675z" fill-rule="nonzero"></path><path fill="#ffffff" d="m320.28552 110.15339l0 1.671875l-10.640625 0q0.578125 0.59375 1.15625 1.578125q0.5625 0.984375 0.859375 1.765625l-1.625 0q-0.65625 -1.40625 -1.59375 -2.453125q-0.9375 -1.046875 -1.8125 -1.484375l0 -1.078125l13.65625 0zm-6.703125 -4.078842q-2.421875 0 -3.890625 -0.5q-1.46875 -0.5 -2.265625 -1.46875q-0.796875 -0.984375 -0.796875 -2.46875q0 -1.09375 0.4375 -1.921875q0.4375 -0.828125 1.28125 -1.359375q0.828125 -0.546875 2.015625 -0.84375q1.1875 -0.3125 3.21875 -0.3125q2.390625 0 3.859375 0.5q1.46875 0.484375 2.28125 1.46875q0.796875 0.96875 0.796875 2.46875q0 1.96875 -1.40625 3.078125q-1.703125 1.359375 -5.53125 1.359375zm0 -1.71875q3.34375 0 4.453125 -0.78125q1.109375 -0.796875 1.109375 -1.9375q0 -1.15625 -1.109375 -1.9375q-1.125 -0.78125 -4.453125 -0.78125q-3.359375 0 -4.46875 0.78125q-1.109375 0.78125 -1.109375 1.953125q0 1.15625 0.984375 1.828125q1.234375 0.875 4.59375 0.875z" fill-rule="nonzero"></path><path fill="#000000" fill-opacity="0.0" d="m331.58414 128.28418l0 -42.85675l34.925293 0l0 42.85675z" fill-rule="nonzero"></path><path fill="#ffffff" d="m355.21085 110.15339l0 1.671875l-10.640625 0q0.578125 0.59375 1.15625 1.578125q0.5625 0.984375 0.859375 1.765625l-1.625 0q-0.65625 -1.40625 -1.59375 -2.453125q-0.9375 -1.046875 -1.8125 -1.484375l0 -1.078125l13.65625 0zm-1.609375 -12.860092l1.609375 0l0 8.984375q-0.609375 0.015625 -1.15625 -0.1875q-0.921875 -0.34375 -1.8125 -1.09375q-0.890625 -0.765625 -2.0625 -2.1875q-1.8125 -2.21875 -2.875 -3.0q-1.0625 -0.78125 -2.015625 -0.78125q-0.984375 0 -1.671875 0.71875q-0.6875 0.703125 -0.6875 1.84375q0 1.203125 0.734375 1.9375q0.71875 0.71875 2.0 0.71875l-0.171875 1.71875q-1.921875 -0.171875 -2.921875 -1.328125q-1.015625 -1.15625 -1.015625 -3.09375q0 -1.953125 1.09375 -3.09375q1.078125 -1.140625 2.6875 -1.140625q0.8125 0 1.609375 0.34375q0.78125 0.328125 1.65625 1.109375q0.859375 0.765625 2.390625 2.5625q1.265625 1.5 1.71875 1.9375q0.4375 0.421875 0.890625 0.703125l0 -6.671875z" fill-rule="nonzero"></path><path fill="#000000" fill-opacity="0.0" d="m366.50943 128.28418l0 -42.85675l34.925323 0l0 42.85675z" fill-rule="nonzero"></path><path fill="#ffffff" d="m390.13617 110.15339l0 1.671875l-10.640625 0q0.578125 0.59375 1.15625 1.578125q0.5625 0.984375 0.859375 1.765625l-1.625 0q-0.65625 -1.40625 -1.59375 -2.453125q-0.9375 -1.046875 -1.8125 -1.484375l0 -1.078125l13.65625 0zm0 -9.438217l-3.25 0l0 5.90625l-1.53125 0l-8.8125 -6.21875l0 -1.359375l8.8125 0l0 -1.84375l1.53125 0l0 1.84375l3.25 0l0 1.671875zm-4.78125 0l-6.140625 0l6.140625 4.25l0 -4.25z" fill-rule="nonzero"></path><path fill="#000000" fill-opacity="0.0" d="m401.43475 128.28418l0 -42.85675l34.925323 0l0 42.85675z" fill-rule="nonzero"></path><path fill="#ffffff" d="m425.06146 110.15339l0 1.671875l-10.640625 0q0.578125 0.59375 1.15625 1.578125q0.5625 0.984375 0.859375 1.765625l-1.625 0q-0.65625 -1.40625 -1.59375 -2.453125q-0.9375 -1.046875 -1.8125 -1.484375l0 -1.078125l13.65625 0zm-10.265625 -12.750717l0.125 1.65625q-0.984375 0.21875 -1.421875 0.640625q-0.71875 0.671875 -0.71875 1.65625q0 0.8125 0.4375 1.40625q0.578125 0.796875 1.6875 1.25q1.09375 0.453125 3.140625 0.46875q-0.921875 -0.609375 -1.359375 -1.46875q-0.453125 -0.875 -0.453125 -1.828125q0 -1.671875 1.234375 -2.84375q1.234375 -1.171875 3.171875 -1.171875q1.28125 0 2.390625 0.546875q1.09375 0.546875 1.6875 1.515625q0.578125 0.96875 0.578125 2.1875q0 2.09375 -1.53125 3.40625q-1.546875 1.3125 -5.0625 1.3125q-3.953125 0 -5.734375 -1.453125q-1.5625 -1.265625 -1.5625 -3.421875q0 -1.609375 0.90625 -2.625q0.890625 -1.03125 2.484375 -1.234375zm5.859375 6.8125q0.859375 0 1.65625 -0.359375q0.78125 -0.375 1.203125 -1.03125q0.40625 -0.65625 0.40625 -1.375q0 -1.0625 -0.84375 -1.8125q-0.859375 -0.765625 -2.328125 -0.765625q-1.40625 0 -2.21875 0.75q-0.8125 0.75 -0.8125 1.890625q0 1.125 0.8125 1.921875q0.8125 0.78125 2.125 0.78125z" fill-rule="nonzero"></path><path fill="#000000" fill-opacity="0.0" d="m436.36008 128.28418l0 -42.85675l34.925293 0l0 42.85675z" fill-rule="nonzero"></path><path fill="#ffffff" d="m459.9868 110.15339l0 1.671875l-10.640625 0q0.578125 0.59375 1.15625 1.578125q0.5625 0.984375 0.859375 1.765625l-1.625 0q-0.65625 -1.40625 -1.59375 -2.453125q-0.9375 -1.046875 -1.8125 -1.484375l0 -1.078125l13.65625 0zm-7.375 -6.656967q-0.375 1.046875 -1.078125 1.546875q-0.71875 0.5 -1.703125 0.5q-1.484375 0 -2.484375 -1.0625q-1.015625 -1.078125 -1.015625 -2.84375q0 -1.78125 1.03125 -2.859375q1.03125 -1.09375 2.515625 -1.09375q0.953125 0 1.65625 0.5q0.703125 0.484375 1.078125 1.5q0.40625 -1.25 1.3125 -1.90625q0.90625 -0.65625 2.171875 -0.65625q1.75 0 2.9375 1.234375q1.1875 1.234375 1.1875 3.25q0 2.015625 -1.1875 3.25q-1.203125 1.234375 -2.984375 1.234375q-1.328125 0 -2.21875 -0.671875q-0.890625 -0.671875 -1.21875 -1.921875zm-2.828125 0.328125q0.96875 0 1.578125 -0.609375q0.609375 -0.625 0.609375 -1.625q0 -0.953125 -0.609375 -1.5625q-0.609375 -0.625 -1.484375 -0.625q-0.921875 0 -1.546875 0.640625q-0.625 0.625 -0.625 1.578125q0 0.953125 0.609375 1.578125q0.609375 0.625 1.46875 0.625zm6.28125 0.546875q0.71875 0 1.390625 -0.328125q0.65625 -0.34375 1.03125 -1.015625q0.359375 -0.671875 0.359375 -1.4375q0 -1.203125 -0.765625 -1.984375q-0.78125 -0.78125 -1.96875 -0.78125q-1.203125 0 -1.984375 0.8125q-0.796875 0.796875 -0.796875 2.0q0 1.1875 0.78125 1.96875q0.78125 0.765625 1.953125 0.765625z" fill-rule="nonzero"></path><path fill="#000000" fill-opacity="0.0" d="m471.28537 128.28418l0 -42.85675l34.925323 0l0 42.85675z" fill-rule="nonzero"></path><path fill="#ffffff" d="m493.3027 107.669014l1.609375 0l0 8.984375q-0.609375 0.015625 -1.15625 -0.1875q-0.921875 -0.34375 -1.8125 -1.09375q-0.890625 -0.765625 -2.0625 -2.1875q-1.8125 -2.21875 -2.875 -3.0q-1.0625 -0.78125 -2.015625 -0.78125q-0.984375 0 -1.671875 0.71875q-0.6875 0.703125 -0.6875 1.84375q0 1.203125 0.734375 1.9375q0.71875 0.71875 2.0 0.71875l-0.171875 1.71875q-1.921875 -0.171875 -2.921875 -1.328125q-1.015625 -1.15625 -1.015625 -3.09375q0 -1.953125 1.09375 -3.09375q1.078125 -1.140625 2.6875 -1.140625q0.8125 0 1.609375 0.34375q0.78125 0.328125 1.65625 1.109375q0.859375 0.765625 2.390625 2.5625q1.265625 1.5 1.71875 1.9375q0.4375 0.421875 0.890625 0.703125l0 -6.671875zm-5.09375 -1.5944672q-2.421875 0 -3.890625 -0.5q-1.46875 -0.5 -2.265625 -1.46875q-0.796875 -0.984375 -0.796875 -2.46875q0 -1.09375 0.4375 -1.921875q0.4375 -0.828125 1.28125 -1.359375q0.828125 -0.546875 2.015625 -0.84375q1.1875 -0.3125 3.21875 -0.3125q2.390625 0 3.859375 0.5q1.46875 0.484375 2.28125 1.46875q0.796875 0.96875 0.796875 2.46875q0 1.96875 -1.40625 3.078125q-1.703125 1.359375 -5.53125 1.359375zm0 -1.71875q3.34375 0 4.453125 -0.78125q1.109375 -0.796875 1.109375 -1.9375q0 -1.15625 -1.109375 -1.9375q-1.125 -0.78125 -4.453125 -0.78125q-3.359375 0 -4.46875 0.78125q-1.109375 0.78125 -1.109375 1.953125q0 1.15625 0.984375 1.828125q1.234375 0.875 4.59375 0.875z" fill-rule="nonzero"></path><path fill="#000000" fill-opacity="0.0" d="m506.2107 128.28418l0 -42.85675l34.925293 0l0 42.85675z" fill-rule="nonzero"></path><path fill="#ffffff" d="m528.228 107.669014l1.609375 0l0 8.984375q-0.609375 0.015625 -1.15625 -0.1875q-0.921875 -0.34375 -1.8125 -1.09375q-0.890625 -0.765625 -2.0625 -2.1875q-1.8125 -2.21875 -2.875 -3.0q-1.0625 -0.78125 -2.015625 -0.78125q-0.984375 0 -1.671875 0.71875q-0.6875 0.703125 -0.6875 1.84375q0 1.203125 0.734375 1.9375q0.71875 0.71875 2.0 0.71875l-0.171875 1.71875q-1.921875 -0.171875 -2.921875 -1.328125q-1.015625 -1.15625 -1.015625 -3.09375q0 -1.953125 1.09375 -3.09375q1.078125 -1.140625 2.6875 -1.140625q0.8125 0 1.609375 0.34375q0.78125 0.328125 1.65625 1.109375q0.859375 0.765625 2.390625 2.5625q1.265625 1.5 1.71875 1.9375q0.4375 0.421875 0.890625 0.703125l0 -6.671875zm0 -10.375717l1.609375 0l0 8.984375q-0.609375 0.015625 -1.15625 -0.1875q-0.921875 -0.34375 -1.8125 -1.09375q-0.890625 -0.765625 -2.0625 -2.1875q-1.8125 -2.21875 -2.875 -3.0q-1.0625 -0.78125 -2.015625 -0.78125q-0.984375 0 -1.671875 0.71875q-0.6875 0.703125 -0.6875 1.84375q0 1.203125 0.734375 1.9375q0.71875 0.71875 2.0 0.71875l-0.171875 1.71875q-1.921875 -0.171875 -2.921875 -1.328125q-1.015625 -1.15625 -1.015625 -3.09375q0 -1.953125 1.09375 -3.09375q1.078125 -1.140625 2.6875 -1.140625q0.8125 0 1.609375 0.34375q0.78125 0.328125 1.65625 1.109375q0.859375 0.765625 2.390625 2.5625q1.265625 1.5 1.71875 1.9375q0.4375 0.421875 0.890625 0.703125l0 -6.671875z" fill-rule="nonzero"></path><path fill="#000000" fill-opacity="0.0" d="m541.136 128.28418l0 -42.85675l34.925354 0l0 42.85675z" fill-rule="nonzero"></path><path fill="#ffffff" d="m563.1533 107.669014l1.609375 0l0 8.984375q-0.609375 0.015625 -1.15625 -0.1875q-0.921875 -0.34375 -1.8125 -1.09375q-0.890625 -0.765625 -2.0625 -2.1875q-1.8125 -2.21875 -2.875 -3.0q-1.0625 -0.78125 -2.015625 -0.78125q-0.984375 0 -1.671875 0.71875q-0.6875 0.703125 -0.6875 1.84375q0 1.203125 0.734375 1.9375q0.71875 0.71875 2.0 0.71875l-0.171875 1.71875q-1.921875 -0.171875 -2.921875 -1.328125q-1.015625 -1.15625 -1.015625 -3.09375q0 -1.953125 1.09375 -3.09375q1.078125 -1.140625 2.6875 -1.140625q0.8125 0 1.609375 0.34375q0.78125 0.328125 1.65625 1.109375q0.859375 0.765625 2.390625 2.5625q1.265625 1.5 1.71875 1.9375q0.4375 0.421875 0.890625 0.703125l0 -6.671875zm1.609375 -6.953842l-3.25 0l0 5.90625l-1.53125 0l-8.8125 -6.21875l0 -1.359375l8.8125 0l0 -1.84375l1.53125 0l0 1.84375l3.25 0l0 1.671875zm-4.78125 0l-6.140625 0l6.140625 4.25l0 -4.25z" fill-rule="nonzero"></path><path fill="#000000" fill-opacity="0.0" d="m576.0613 128.28418l0 -42.85675l34.925354 0l0 42.85675z" fill-rule="nonzero"></path><path fill="#ffffff" d="m598.0787 107.669014l1.609375 0l0 8.984375q-0.609375 0.015625 -1.15625 -0.1875q-0.921875 -0.34375 -1.8125 -1.09375q-0.890625 -0.765625 -2.0625 -2.1875q-1.8125 -2.21875 -2.875 -3.0q-1.0625 -0.78125 -2.015625 -0.78125q-0.984375 0 -1.671875 0.71875q-0.6875 0.703125 -0.6875 1.84375q0 1.203125 0.734375 1.9375q0.71875 0.71875 2.0 0.71875l-0.171875 1.71875q-1.921875 -0.171875 -2.921875 -1.328125q-1.015625 -1.15625 -1.015625 -3.09375q0 -1.953125 1.09375 -3.09375q1.078125 -1.140625 2.6875 -1.140625q0.8125 0 1.609375 0.34375q0.78125 0.328125 1.65625 1.109375q0.859375 0.765625 2.390625 2.5625q1.265625 1.5 1.71875 1.9375q0.4375 0.421875 0.890625 0.703125l0 -6.671875zm-8.65625 -10.266342l0.125 1.65625q-0.984375 0.21875 -1.421875 0.640625q-0.71875 0.671875 -0.71875 1.65625q0 0.8125 0.4375 1.40625q0.578125 0.796875 1.6875 1.25q1.09375 0.453125 3.140625 0.46875q-0.921875 -0.609375 -1.359375 -1.46875q-0.453125 -0.875 -0.453125 -1.828125q0 -1.671875 1.234375 -2.84375q1.234375 -1.171875 3.171875 -1.171875q1.28125 0 2.390625 0.546875q1.09375 0.546875 1.6875 1.515625q0.578125 0.96875 0.578125 2.1875q0 2.09375 -1.53125 3.40625q-1.546875 1.3125 -5.0625 1.3125q-3.953125 0 -5.734375 -1.453125q-1.5625 -1.265625 -1.5625 -3.421875q0 -1.609375 0.90625 -2.625q0.890625 -1.03125 2.484375 -1.234375zm5.859375 6.8125q0.859375 0 1.65625 -0.359375q0.78125 -0.375 1.203125 -1.03125q0.40625 -0.65625 0.40625 -1.375q0 -1.0625 -0.84375 -1.8125q-0.859375 -0.765625 -2.328125 -0.765625q-1.40625 0 -2.21875 0.75q-0.8125 0.75 -0.8125 1.890625q0 1.125 0.8125 1.921875q0.8125 0.78125 2.125 0.78125z" fill-rule="nonzero"></path><path fill="#ff9900" d="m160.0 338.70865l0 0c0 -5.914215 4.688675 -10.708649 10.472443 -10.708649l0 0c2.7774658 0 5.441162 1.1282349 7.405136 3.1365051c1.9639587 2.0082397 3.0673065 4.7320557 3.0673065 7.5721436l0 0c0 5.9142456 -4.688675 10.708679 -10.472443 10.708679l0 0c-5.7837677 0 -10.472443 -4.7944336 -10.472443 -10.708679z" fill-rule="nonzero"></path><path stroke="#000000" stroke-width="2.0" stroke-linejoin="round" stroke-linecap="butt" d="m160.0 338.70865l0 0c0 -5.914215 4.688675 -10.708649 10.472443 -10.708649l0 0c2.7774658 0 5.441162 1.1282349 7.405136 3.1365051c1.9639587 2.0082397 3.0673065 4.7320557 3.0673065 7.5721436l0 0c0 5.9142456 -4.688675 10.708679 -10.472443 10.708679l0 0c-5.7837677 0 -10.472443 -4.7944336 -10.472443 -10.708679z" fill-rule="nonzero"></path><path fill="#ff0000" d="m192.0 338.70865l0 0c0 -5.914215 4.688675 -10.708649 10.472443 -10.708649l0 0c2.7774658 0 5.441162 1.1282349 7.405136 3.1365051c1.9639587 2.0082397 3.0673065 4.7320557 3.0673065 7.5721436l0 0c0 5.9142456 -4.688675 10.708679 -10.472443 10.708679l0 0c-5.7837677 0 -10.472443 -4.7944336 -10.472443 -10.708679z" fill-rule="nonzero"></path><path stroke="#000000" stroke-width="2.0" stroke-linejoin="round" stroke-linecap="butt" d="m192.0 338.70865l0 0c0 -5.914215 4.688675 -10.708649 10.472443 -10.708649l0 0c2.7774658 0 5.441162 1.1282349 7.405136 3.1365051c1.9639587 2.0082397 3.0673065 4.7320557 3.0673065 7.5721436l0 0c0 5.9142456 -4.688675 10.708679 -10.472443 10.708679l0 0c-5.7837677 0 -10.472443 -4.7944336 -10.472443 -10.708679z" fill-rule="nonzero"></path><path fill="#000000" d="m224.0 338.70865l0 0c0 -5.914215 4.688675 -10.708649 10.472443 -10.708649l0 0c2.7774658 0 5.441162 1.1282349 7.405136 3.1365051c1.9639587 2.0082397 3.0673065 4.7320557 3.0673065 7.5721436l0 0c0 5.9142456 -4.688675 10.708679 -10.472443 10.708679l0 0c-5.7837677 0 -10.472443 -4.7944336 -10.472443 -10.708679z" fill-rule="nonzero"></path><path stroke="#000000" stroke-width="2.0" stroke-linejoin="round" stroke-linecap="butt" d="m224.0 338.70865l0 0c0 -5.914215 4.688675 -10.708649 10.472443 -10.708649l0 0c2.7774658 0 5.441162 1.1282349 7.405136 3.1365051c1.9639587 2.0082397 3.0673065 4.7320557 3.0673065 7.5721436l0 0c0 5.9142456 -4.688675 10.708679 -10.472443 10.708679l0 0c-5.7837677 0 -10.472443 -4.7944336 -10.472443 -10.708679z" fill-rule="nonzero"></path><path fill="#ffff00" d="m259.0551 338.70865l0 0c0 -5.914215 4.68869 -10.708649 10.472443 -10.708649l0 0c2.7774658 0 5.441162 1.1282349 7.405121 3.1365051c1.9639893 2.0082397 3.0673218 4.7320557 3.0673218 7.5721436l0 0c0 5.9142456 -4.6886597 10.708679 -10.472443 10.708679l0 0c-5.7837524 0 -10.472443 -4.7944336 -10.472443 -10.708679z" fill-rule="nonzero"></path><path stroke="#000000" stroke-width="2.0" stroke-linejoin="round" stroke-linecap="butt" d="m259.0551 338.70865l0 0c0 -5.914215 4.68869 -10.708649 10.472443 -10.708649l0 0c2.7774658 0 5.441162 1.1282349 7.405121 3.1365051c1.9639893 2.0082397 3.0673218 4.7320557 3.0673218 7.5721436l0 0c0 5.9142456 -4.6886597 10.708679 -10.472443 10.708679l0 0c-5.7837524 0 -10.472443 -4.7944336 -10.472443 -10.708679z" fill-rule="nonzero"></path><path fill="#00ffff" d="m291.0551 338.70865l0 0c0 -5.914215 4.68869 -10.708649 10.472443 -10.708649l0 0c2.7774658 0 5.441162 1.1282349 7.405121 3.1365051c1.9639893 2.0082397 3.0673218 4.7320557 3.0673218 7.5721436l0 0c0 5.9142456 -4.6886597 10.708679 -10.472443 10.708679l0 0c-5.7837524 0 -10.472443 -4.7944336 -10.472443 -10.708679z" fill-rule="nonzero"></path><path stroke="#000000" stroke-width="2.0" stroke-linejoin="round" stroke-linecap="butt" d="m291.0551 338.70865l0 0c0 -5.914215 4.68869 -10.708649 10.472443 -10.708649l0 0c2.7774658 0 5.441162 1.1282349 7.405121 3.1365051c1.9639893 2.0082397 3.0673218 4.7320557 3.0673218 7.5721436l0 0c0 5.9142456 -4.6886597 10.708679 -10.472443 10.708679l0 0c-5.7837524 0 -10.472443 -4.7944336 -10.472443 -10.708679z" fill-rule="nonzero"></path><path fill="#00ff00" d="m328.0 338.70865l0 0c0 -5.914215 4.6886597 -10.708649 10.472443 -10.708649l0 0c2.7774658 0 5.441162 1.1282349 7.405121 3.1365051c1.9639893 2.0082397 3.0673218 4.7320557 3.0673218 7.5721436l0 0c0 5.9142456 -4.6886597 10.708679 -10.472443 10.708679l0 0c-5.783783 0 -10.472443 -4.7944336 -10.472443 -10.708679z" fill-rule="nonzero"></path><path stroke="#000000" stroke-width="2.0" stroke-linejoin="round" stroke-linecap="butt" d="m328.0 338.70865l0 0c0 -5.914215 4.6886597 -10.708649 10.472443 -10.708649l0 0c2.7774658 0 5.441162 1.1282349 7.405121 3.1365051c1.9639893 2.0082397 3.0673218 4.7320557 3.0673218 7.5721436l0 0c0 5.9142456 -4.6886597 10.708679 -10.472443 10.708679l0 0c-5.783783 0 -10.472443 -4.7944336 -10.472443 -10.708679z" fill-rule="nonzero"></path><path fill="#ff00ff" d="m363.0551 338.70865l0 0c0 -5.914215 4.68869 -10.708649 10.472443 -10.708649l0 0c2.7774658 0 5.441162 1.1282349 7.405121 3.1365051c1.9639893 2.0082397 3.0673218 4.7320557 3.0673218 7.5721436l0 0c0 5.9142456 -4.6886597 10.708679 -10.472443 10.708679l0 0c-5.7837524 0 -10.472443 -4.7944336 -10.472443 -10.708679z" fill-rule="nonzero"></path><path stroke="#000000" stroke-width="2.0" stroke-linejoin="round" stroke-linecap="butt" d="m363.0551 338.70865l0 0c0 -5.914215 4.68869 -10.708649 10.472443 -10.708649l0 0c2.7774658 0 5.441162 1.1282349 7.405121 3.1365051c1.9639893 2.0082397 3.0673218 4.7320557 3.0673218 7.5721436l0 0c0 5.9142456 -4.6886597 10.708679 -10.472443 10.708679l0 0c-5.7837524 0 -10.472443 -4.7944336 -10.472443 -10.708679z" fill-rule="nonzero"></path></g></svg>

